{
    "asset" : {
        "generator" : "Khronos glTF Blender I/O v1.1.46",
        "version" : "2.0"
    },
    "scene" : 0,
    "scenes" : [
        {
            "name" : "Scene",
            "nodes" : [
                0,
                1,
                2,
                3,
                7
            ]
        }
    ],
    "nodes" : [
        {
            "name" : "Light",
            "rotation" : [
                0.16907575726509094,
                0.7558803558349609,
                -0.27217137813568115,
                0.570947527885437
            ],
            "translation" : [
                4.076245307922363,
                5.903861999511719,
                -1.0054539442062378
            ]
        },
        {
            "name" : "Camera",
            "rotation" : [
                0.483536034822464,
                0.33687159419059753,
                -0.20870360732078552,
                0.7804827094078064
            ],
            "translation" : [
                7.358891487121582,
                4.958309173583984,
                6.925790786743164
            ]
        },
        {
            "name" : "Camera.001",
            "rotation" : [
                -0.015366476960480213,
                -0.5586708188056946,
                0.829182505607605,
                -0.010352235287427902
            ],
            "translation" : [
                -1.3670740127563477,
                15.850841522216797,
                22.730178833007812
            ]
        },
        {
            "mesh" : 0,
            "name" : "OutBoddy",
            "rotation" : [
                0,
                1,
                0,
                -4.371138828673793e-08
            ],
            "scale" : [
                0.15421539545059204,
                5.751691818237305,
                0.3618917465209961
            ],
            "translation" : [
                0.40674877166748047,
                8.58448600769043,
                -0.004735386930406094
            ]
        },
        {
            "mesh" : 1,
            "name" : "Locker",
            "rotation" : [
                0,
                0.9688971638679504,
                0,
                0.24746374785900116
            ],
            "scale" : [
                0.06711968034505844,
                1.756875991821289,
                0.09936977177858353
            ],
            "translation" : [
                1.8459701538085938,
                1.228494644165039,
                -1.5637316703796387
            ]
        },
        {
            "mesh" : 2,
            "name" : "Mesh.001",
            "rotation" : [
                -6.016831775923492e-06,
                -0.9951523542404175,
                -5.081662948214216e-06,
                0.09834539145231247
            ],
            "scale" : [
                0.4194861352443695,
                0.10728482156991959,
                4.779465675354004
            ],
            "translation" : [
                0.09409046173095703,
                0.4267282485961914,
                -0.7738528251647949
            ]
        },
        {
            "children" : [
                5
            ],
            "mesh" : 3,
            "name" : "Locker.001",
            "rotation" : [
                0,
                -0.12342990934848785,
                0,
                0.9923533201217651
            ],
            "scale" : [
                0.06711976230144501,
                1.756875991821289,
                0.09936977177858353
            ],
            "translation" : [
                1.8419761657714844,
                1.228494644165039,
                1.2378100156784058
            ]
        },
        {
            "children" : [
                4,
                6
            ],
            "mesh" : 4,
            "name" : "DoorBoddy",
            "rotation" : [
                0,
                -0.7715244293212891,
                0,
                0.6361997127532959
            ],
            "scale" : [
                3.2790987491607666,
                0.42154186964035034,
                0.1672070175409317
            ],
            "translation" : [
                3.6852073669433594,
                6.012170791625977,
                -0.017105668783187866
            ]
        }
    ],
    "materials" : [
        {
            "doubleSided" : true,
            "emissiveFactor" : [
                0,
                0,
                0
            ],
            "name" : "Material.001",
            "pbrMetallicRoughness" : {
                "baseColorTexture" : {
                    "index" : 0,
                    "texCoord" : 0
                },
                "metallicFactor" : 0,
                "roughnessFactor" : 0.5
            }
        },
        {
            "doubleSided" : true,
            "emissiveFactor" : [
                0,
                0,
                0
            ],
            "name" : "text.002",
            "pbrMetallicRoughness" : {
                "baseColorTexture" : {
                    "index" : 1,
                    "texCoord" : 0
                },
                "metallicFactor" : 0,
                "roughnessFactor" : 0.690034806728363
            }
        },
        {
            "doubleSided" : true,
            "emissiveFactor" : [
                0,
                0,
                0
            ],
            "name" : "text.004",
            "pbrMetallicRoughness" : {
                "baseColorTexture" : {
                    "index" : 2,
                    "texCoord" : 0
                },
                "metallicFactor" : 0,
                "roughnessFactor" : 0.690034806728363
            }
        },
        {
            "doubleSided" : true,
            "emissiveFactor" : [
                0,
                0,
                0
            ],
            "name" : "text.003",
            "pbrMetallicRoughness" : {
                "baseColorTexture" : {
                    "index" : 3,
                    "texCoord" : 0
                },
                "metallicFactor" : 0,
                "roughnessFactor" : 0.690034806728363
            }
        },
        {
            "doubleSided" : true,
            "emissiveFactor" : [
                0,
                0,
                0
            ],
            "name" : "Material.002",
            "pbrMetallicRoughness" : {
                "baseColorTexture" : {
                    "index" : 4,
                    "texCoord" : 0
                },
                "metallicFactor" : 0,
                "roughnessFactor" : 0.5
            }
        }
    ],
    "meshes" : [
        {
            "name" : "Cube.002",
            "primitives" : [
                {
                    "attributes" : {
                        "POSITION" : 0,
                        "NORMAL" : 1,
                        "TEXCOORD_0" : 2
                    },
                    "indices" : 3,
                    "material" : 0
                }
            ]
        },
        {
            "name" : "Cube.003",
            "primitives" : [
                {
                    "attributes" : {
                        "POSITION" : 4,
                        "NORMAL" : 5,
                        "TEXCOORD_0" : 6
                    },
                    "indices" : 7,
                    "material" : 1
                },
                {
                    "attributes" : {
                        "POSITION" : 8,
                        "NORMAL" : 9,
                        "TEXCOORD_0" : 10
                    },
                    "indices" : 11,
                    "material" : 2
                }
            ]
        },
        {
            "name" : "Icosphere.001",
            "primitives" : [
                {
                    "attributes" : {
                        "POSITION" : 12,
                        "NORMAL" : 13,
                        "TEXCOORD_0" : 14
                    },
                    "indices" : 15,
                    "material" : 3
                }
            ]
        },
        {
            "name" : "Cube.004",
            "primitives" : [
                {
                    "attributes" : {
                        "POSITION" : 16,
                        "NORMAL" : 17,
                        "TEXCOORD_0" : 18
                    },
                    "indices" : 7,
                    "material" : 1
                },
                {
                    "attributes" : {
                        "POSITION" : 19,
                        "NORMAL" : 20,
                        "TEXCOORD_0" : 21
                    },
                    "indices" : 11,
                    "material" : 2
                }
            ]
        },
        {
            "name" : "Cube.001",
            "primitives" : [
                {
                    "attributes" : {
                        "POSITION" : 22,
                        "NORMAL" : 23,
                        "TEXCOORD_0" : 24
                    },
                    "indices" : 25,
                    "material" : 4
                }
            ]
        }
    ],
    "textures" : [
        {
            "source" : 0
        },
        {
            "source" : 1
        },
        {
            "source" : 2
        },
        {
            "source" : 1
        },
        {
            "source" : 0
        }
    ],
    "images" : [
        {
            "bufferView" : 4,
            "mimeType" : "image/jpeg",
            "name" : "WoodTexture"
        },
        {
            "bufferView" : 9,
            "mimeType" : "image/png",
            "name" : "LockerTexture-LockerTexture.png"
        },
        {
            "bufferView" : 14,
            "mimeType" : "image/jpeg",
            "name" : "LockerDetailText"
        }
    ],
    "accessors" : [
        {
            "bufferView" : 0,
            "componentType" : 5126,
            "count" : 208,
            "max" : [
                23.272037506103516,
                0.7353189587593079,
                1.4223976135253906
            ],
            "min" : [
                -23.28598403930664,
                -1.423997163772583,
                -1.4223976135253906
            ],
            "type" : "VEC3"
        },
        {
            "bufferView" : 1,
            "componentType" : 5126,
            "count" : 208,
            "type" : "VEC3"
        },
        {
            "bufferView" : 2,
            "componentType" : 5126,
            "count" : 208,
            "type" : "VEC2"
        },
        {
            "bufferView" : 3,
            "componentType" : 5123,
            "count" : 708,
            "type" : "SCALAR"
        },
        {
            "bufferView" : 5,
            "componentType" : 5126,
            "count" : 176,
            "max" : [
                1.0116537809371948,
                1.3199927806854248,
                -0.4691331386566162
            ],
            "min" : [
                -0.9779396057128906,
                -1.0719547271728516,
                -3.4582409858703613
            ],
            "type" : "VEC3"
        },
        {
            "bufferView" : 6,
            "componentType" : 5126,
            "count" : 176,
            "type" : "VEC3"
        },
        {
            "bufferView" : 7,
            "componentType" : 5126,
            "count" : 176,
            "type" : "VEC2"
        },
        {
            "bufferView" : 8,
            "componentType" : 5123,
            "count" : 612,
            "type" : "SCALAR"
        },
        {
            "bufferView" : 10,
            "componentType" : 5126,
            "count" : 253,
            "max" : [
                0.6056175231933594,
                -0.02855244278907776,
                3.354389190673828
            ],
            "min" : [
                -0.6256057024002075,
                -0.3649457097053528,
                -1.5902990102767944
            ],
            "type" : "VEC3"
        },
        {
            "bufferView" : 11,
            "componentType" : 5126,
            "count" : 253,
            "type" : "VEC3"
        },
        {
            "bufferView" : 12,
            "componentType" : 5126,
            "count" : 253,
            "type" : "VEC2"
        },
        {
            "bufferView" : 13,
            "componentType" : 5123,
            "count" : 648,
            "type" : "SCALAR"
        },
        {
            "bufferView" : 15,
            "componentType" : 5126,
            "count" : 176,
            "max" : [
                5.941583633422852,
                1.1110836267471313,
                3.6175765991210938
            ],
            "min" : [
                -0.9510591626167297,
                -1.2005378007888794,
                -0.0497249960899353
            ],
            "type" : "VEC3"
        },
        {
            "bufferView" : 16,
            "componentType" : 5126,
            "count" : 176,
            "type" : "VEC3"
        },
        {
            "bufferView" : 17,
            "componentType" : 5126,
            "count" : 176,
            "type" : "VEC2"
        },
        {
            "bufferView" : 18,
            "componentType" : 5123,
            "count" : 600,
            "type" : "SCALAR"
        },
        {
            "bufferView" : 19,
            "componentType" : 5126,
            "count" : 176,
            "max" : [
                1.0116537809371948,
                1.3199927806854248,
                -0.4691331386566162
            ],
            "min" : [
                -0.9779396057128906,
                -1.0719547271728516,
                -3.4582409858703613
            ],
            "type" : "VEC3"
        },
        {
            "bufferView" : 20,
            "componentType" : 5126,
            "count" : 176,
            "type" : "VEC3"
        },
        {
            "bufferView" : 21,
            "componentType" : 5126,
            "count" : 176,
            "type" : "VEC2"
        },
        {
            "bufferView" : 22,
            "componentType" : 5126,
            "count" : 253,
            "max" : [
                0.6056175231933594,
                -0.02855244278907776,
                3.354389190673828
            ],
            "min" : [
                -0.6256057024002075,
                -0.3649457097053528,
                -1.5902990102767944
            ],
            "type" : "VEC3"
        },
        {
            "bufferView" : 23,
            "componentType" : 5126,
            "count" : 253,
            "type" : "VEC3"
        },
        {
            "bufferView" : 24,
            "componentType" : 5126,
            "count" : 253,
            "type" : "VEC2"
        },
        {
            "bufferView" : 25,
            "componentType" : 5126,
            "count" : 1182,
            "max" : [
                2.0259571075439453,
                15.398770332336426,
                0.9505162239074707
            ],
            "min" : [
                -1.609325408935547e-05,
                -13.249133110046387,
                -1.0503145456314087
            ],
            "type" : "VEC3"
        },
        {
            "bufferView" : 26,
            "componentType" : 5126,
            "count" : 1182,
            "type" : "VEC3"
        },
        {
            "bufferView" : 27,
            "componentType" : 5126,
            "count" : 1182,
            "type" : "VEC2"
        },
        {
            "bufferView" : 28,
            "componentType" : 5123,
            "count" : 4392,
            "type" : "SCALAR"
        }
    ],
    "bufferViews" : [
        {
            "buffer" : 0,
            "byteLength" : 2496,
            "byteOffset" : 0
        },
        {
            "buffer" : 0,
            "byteLength" : 2496,
            "byteOffset" : 2496
        },
        {
            "buffer" : 0,
            "byteLength" : 1664,
            "byteOffset" : 4992
        },
        {
            "buffer" : 0,
            "byteLength" : 1416,
            "byteOffset" : 6656
        },
        {
            "buffer" : 0,
            "byteLength" : 15108,
            "byteOffset" : 8072
        },
        {
            "buffer" : 0,
            "byteLength" : 2112,
            "byteOffset" : 23180
        },
        {
            "buffer" : 0,
            "byteLength" : 2112,
            "byteOffset" : 25292
        },
        {
            "buffer" : 0,
            "byteLength" : 1408,
            "byteOffset" : 27404
        },
        {
            "buffer" : 0,
            "byteLength" : 1224,
            "byteOffset" : 28812
        },
        {
            "buffer" : 0,
            "byteLength" : 2696,
            "byteOffset" : 30036
        },
        {
            "buffer" : 0,
            "byteLength" : 3036,
            "byteOffset" : 32732
        },
        {
            "buffer" : 0,
            "byteLength" : 3036,
            "byteOffset" : 35768
        },
        {
            "buffer" : 0,
            "byteLength" : 2024,
            "byteOffset" : 38804
        },
        {
            "buffer" : 0,
            "byteLength" : 1296,
            "byteOffset" : 40828
        },
        {
            "buffer" : 0,
            "byteLength" : 7437,
            "byteOffset" : 42124
        },
        {
            "buffer" : 0,
            "byteLength" : 2112,
            "byteOffset" : 49564
        },
        {
            "buffer" : 0,
            "byteLength" : 2112,
            "byteOffset" : 51676
        },
        {
            "buffer" : 0,
            "byteLength" : 1408,
            "byteOffset" : 53788
        },
        {
            "buffer" : 0,
            "byteLength" : 1200,
            "byteOffset" : 55196
        },
        {
            "buffer" : 0,
            "byteLength" : 2112,
            "byteOffset" : 56396
        },
        {
            "buffer" : 0,
            "byteLength" : 2112,
            "byteOffset" : 58508
        },
        {
            "buffer" : 0,
            "byteLength" : 1408,
            "byteOffset" : 60620
        },
        {
            "buffer" : 0,
            "byteLength" : 3036,
            "byteOffset" : 62028
        },
        {
            "buffer" : 0,
            "byteLength" : 3036,
            "byteOffset" : 65064
        },
        {
            "buffer" : 0,
            "byteLength" : 2024,
            "byteOffset" : 68100
        },
        {
            "buffer" : 0,
            "byteLength" : 14184,
            "byteOffset" : 70124
        },
        {
            "buffer" : 0,
            "byteLength" : 14184,
            "byteOffset" : 84308
        },
        {
            "buffer" : 0,
            "byteLength" : 9456,
            "byteOffset" : 98492
        },
        {
            "buffer" : 0,
            "byteLength" : 8784,
            "byteOffset" : 107948
        }
    ],
    "buffers" : [
        {
            "byteLength" : 116732,
            "uri" : "data:application/octet-stream;base64,"
        }
    ]
}
