{
    "asset" : {
        "generator" : "Khronos glTF Blender I/O v1.1.46",
        "version" : "2.0"
    },
    "scene" : 0,
    "scenes" : [
        {
            "name" : "Scene",
            "nodes" : [
                0,
                1,
                10
            ]
        }
    ],
    "nodes" : [
        {
            "name" : "Light",
            "rotation" : [
                0.16907575726509094,
                0.7558803558349609,
                -0.27217137813568115,
                0.570947527885437
            ],
            "translation" : [
                4.076245307922363,
                5.903861999511719,
                -1.0054539442062378
            ]
        },
        {
            "name" : "Camera",
            "rotation" : [
                0.483536034822464,
                0.33687159419059753,
                -0.20870360732078552,
                0.7804827094078064
            ],
            "translation" : [
                7.358891487121582,
                4.958309173583984,
                6.925790786743164
            ]
        },
        {
            "mesh" : 0,
            "name" : "Cables_lambert1_0",
            "scale" : [
                1,
                1,
                0.2876170873641968
            ]
        },
        {
            "children" : [
                2
            ],
            "name" : "Cables"
        },
        {
            "mesh" : 1,
            "name" : "Sign_lambert1_0"
        },
        {
            "children" : [
                4
            ],
            "name" : "Sign"
        },
        {
            "children" : [
                3,
                5
            ],
            "name" : "ExitSign2"
        },
        {
            "children" : [
                6
            ],
            "name" : "RootNode"
        },
        {
            "children" : [
                7
            ],
            "name" : "f51c5b26368942cead075bb65b98d238.fbx",
            "rotation" : [
                0.7071068286895752,
                0,
                0,
                0.7071068286895752
            ]
        },
        {
            "children" : [
                8
            ],
            "name" : "RootNode (model correction matrix)",
            "rotation" : [
                0,
                -0.7071068286895752,
                0,
                0.7071068286895752
            ],
            "translation" : [
                0,
                0,
                2.235200099676149e-06
            ]
        },
        {
            "children" : [
                9
            ],
            "name" : "RootNode (gltf orientation matrix)"
        }
    ],
    "materials" : [
        {
            "doubleSided" : true,
            "emissiveFactor" : [
                1,
                1,
                1
            ],
            "emissiveTexture" : {
                "index" : 0,
                "texCoord" : 0
            },
            "name" : "lambert1",
            "normalTexture" : {
                "index" : 1,
                "texCoord" : 0
            },
            "pbrMetallicRoughness" : {
                "baseColorTexture" : {
                    "index" : 2,
                    "texCoord" : 0
                },
                "metallicFactor" : 0.17244665324687958,
                "roughnessFactor" : 0.6846417784690857
            }
        }
    ],
    "meshes" : [
        {
            "name" : "Cables_lambert1_0",
            "primitives" : [
                {
                    "attributes" : {
                        "POSITION" : 0,
                        "NORMAL" : 1,
                        "TEXCOORD_0" : 2
                    },
                    "indices" : 3,
                    "material" : 0
                }
            ]
        },
        {
            "name" : "Sign_lambert1_0",
            "primitives" : [
                {
                    "attributes" : {
                        "POSITION" : 4,
                        "NORMAL" : 5,
                        "TEXCOORD_0" : 6
                    },
                    "indices" : 7,
                    "material" : 0
                }
            ]
        }
    ],
    "textures" : [
        {
            "source" : 0
        },
        {
            "source" : 1
        },
        {
            "source" : 2
        }
    ],
    "images" : [
        {
            "bufferView" : 4,
            "mimeType" : "image/png",
            "name" : "lambert1_emissive"
        },
        {
            "bufferView" : 5,
            "mimeType" : "image/png",
            "name" : "lambert1_normal"
        },
        {
            "bufferView" : 6,
            "mimeType" : "image/png",
            "name" : "lambert1_baseColor"
        }
    ],
    "accessors" : [
        {
            "bufferView" : 0,
            "componentType" : 5126,
            "count" : 88,
            "max" : [
                2.3560001850128174,
                0.3475528955459595,
                -1.2213431596755981
            ],
            "min" : [
                -2.355825185775757,
                -0.3475528657436371,
                -10.311429023742676
            ],
            "type" : "VEC3"
        },
        {
            "bufferView" : 1,
            "componentType" : 5126,
            "count" : 88,
            "type" : "VEC3"
        },
        {
            "bufferView" : 2,
            "componentType" : 5126,
            "count" : 88,
            "type" : "VEC2"
        },
        {
            "bufferView" : 3,
            "componentType" : 5123,
            "count" : 240,
            "type" : "SCALAR"
        },
        {
            "bufferView" : 7,
            "componentType" : 5126,
            "count" : 82,
            "max" : [
                2.601778030395508,
                0.5,
                1.2948435544967651
            ],
            "min" : [
                -2.601778030395508,
                -0.5,
                -1.2948435544967651
            ],
            "type" : "VEC3"
        },
        {
            "bufferView" : 8,
            "componentType" : 5126,
            "count" : 82,
            "type" : "VEC3"
        },
        {
            "bufferView" : 9,
            "componentType" : 5126,
            "count" : 82,
            "type" : "VEC2"
        },
        {
            "bufferView" : 10,
            "componentType" : 5123,
            "count" : 144,
            "type" : "SCALAR"
        }
    ],
    "bufferViews" : [
        {
            "buffer" : 0,
            "byteLength" : 1056,
            "byteOffset" : 0
        },
        {
            "buffer" : 0,
            "byteLength" : 1056,
            "byteOffset" : 1056
        },
        {
            "buffer" : 0,
            "byteLength" : 704,
            "byteOffset" : 2112
        },
        {
            "buffer" : 0,
            "byteLength" : 480,
            "byteOffset" : 2816
        },
        {
            "buffer" : 0,
            "byteLength" : 3219,
            "byteOffset" : 3296
        },
        {
            "buffer" : 0,
            "byteLength" : 13525,
            "byteOffset" : 6516
        },
        {
            "buffer" : 0,
            "byteLength" : 7088,
            "byteOffset" : 20044
        },
        {
            "buffer" : 0,
            "byteLength" : 984,
            "byteOffset" : 27132
        },
        {
            "buffer" : 0,
            "byteLength" : 984,
            "byteOffset" : 28116
        },
        {
            "buffer" : 0,
            "byteLength" : 656,
            "byteOffset" : 29100
        },
        {
            "buffer" : 0,
            "byteLength" : 288,
            "byteOffset" : 29756
        }
    ],
    "buffers" : [
        {
            "byteLength" : 30044,
            "uri" : "data:application/octet-stream;base64,"
        }
    ]
}
