# Blender v2.82 (sub 7) OBJ File: ''
# www.blender.org
mtllib getout.mtl
o pPlane4_Mesh.001
v 0.354383 0.189350 0.000000
v 0.491150 0.189350 0.000000
v 0.354383 0.271762 0.000000
v 0.491150 0.271762 0.000000
v 0.424942 -0.061535 -0.002176
v 0.422767 -0.061535 -0.003077
v 0.420591 -0.061535 -0.002176
v 0.419690 -0.061535 -0.000000
v 0.420591 -0.061535 0.002176
v 0.422767 -0.061535 0.003077
v 0.424942 -0.061535 0.002176
v 0.425844 -0.061535 -0.000000
v 0.424942 0.194973 -0.002176
v 0.422767 0.194973 -0.003077
v 0.420591 0.194973 -0.002176
v 0.419690 0.194973 0.000000
v 0.420591 0.194973 0.002176
v 0.422767 0.194973 0.003077
v 0.424942 0.194973 0.002176
v 0.425844 0.194973 0.000000
v 0.422767 -0.061535 -0.000000
v 0.422767 0.194973 0.000000
vt 0.013033 0.433635
vt 0.586967 0.433635
vt 0.586967 0.694732
vt 0.013033 0.694732
vt 0.089153 -0.116271
vt 0.191865 -0.116271
vt 0.191865 2.459054
vt 0.089161 2.459029
vt 0.294576 -0.116271
vt 0.294576 2.459054
vt 0.397288 -0.116271
vt 0.397288 2.459054
vt 0.500000 -0.116271
vt 0.500000 2.459054
vt 0.602712 -0.116271
vt 0.602712 2.459054
vt 0.705424 -0.116271
vt 0.705424 2.459054
vt 0.808136 -0.116271
vt 0.808136 2.459054
vt 0.910847 -0.116271
vt 0.910839 2.459029
vt 0.500000 -1.143389
vt 0.863141 -0.992971
vt 0.500000 -0.650372
vt 0.136859 -0.992971
vt -0.013559 -0.629830
vt 0.136859 -0.266689
vt 0.500000 -0.116271
vt 0.863141 -0.266689
vt 1.013559 -0.629830
vt 0.863126 1.995638
vt 0.500000 2.146050
vt 0.500000 1.622983
vt 0.136874 1.995638
vt -0.013538 1.632512
vt 0.136874 1.269386
vt 0.500000 1.118974
vt 0.863126 1.269386
vt 1.013538 1.632512
vn 0.0000 -0.0000 1.0000
vn 0.3827 0.0000 -0.9239
vn -0.3827 0.0000 -0.9239
vn -0.9239 0.0000 -0.3827
vn -0.9239 0.0000 0.3827
vn -0.3827 -0.0000 0.9239
vn 0.3827 -0.0000 0.9239
vn 0.9239 -0.0000 0.3827
vn 0.9239 0.0000 -0.3827
vn 0.0000 -1.0000 0.0000
vn 0.0000 1.0000 0.0000
g pPlane4_Mesh.001_phong1
usemtl phong1
s 1
f 1/1/1 2/2/1 4/3/1 3/4/1
g pPlane4_Mesh.001_lambert2
usemtl lambert2
f 5/5/2 6/6/2 14/7/2 13/8/2
f 6/6/3 7/9/3 15/10/3 14/7/3
f 7/9/4 8/11/4 16/12/4 15/10/4
f 8/11/5 9/13/5 17/14/5 16/12/5
f 9/13/6 10/15/6 18/16/6 17/14/6
f 10/15/7 11/17/7 19/18/7 18/16/7
f 11/17/8 12/19/8 20/20/8 19/18/8
f 12/19/9 5/21/9 13/22/9 20/20/9
f 6/23/10 5/24/10 21/25/10
f 7/26/10 6/23/10 21/25/10
f 8/27/10 7/26/10 21/25/10
f 9/28/10 8/27/10 21/25/10
f 10/29/10 9/28/10 21/25/10
f 11/30/10 10/29/10 21/25/10
f 12/31/10 11/30/10 21/25/10
f 5/24/10 12/31/10 21/25/10
f 13/32/11 14/33/11 22/34/11
f 14/33/11 15/35/11 22/34/11
f 15/35/11 16/36/11 22/34/11
f 16/36/11 17/37/11 22/34/11
f 17/37/11 18/38/11 22/34/11
f 18/38/11 19/39/11 22/34/11
f 19/39/11 20/40/11 22/34/11
f 20/40/11 13/32/11 22/34/11
