{
    "asset" : {
        "generator" : "Khronos glTF Blender I/O v1.1.46",
        "version" : "2.0"
    },
    "scene" : 0,
    "scenes" : [
        {
            "name" : "Scene",
            "nodes" : [
                0,
                1,
                2
            ]
        }
    ],
    "nodes" : [
        {
            "name" : "Light",
            "rotation" : [
                0.16907575726509094,
                0.7558803558349609,
                -0.27217137813568115,
                0.570947527885437
            ],
            "translation" : [
                4.076245307922363,
                5.903861999511719,
                -1.0054539442062378
            ]
        },
        {
            "name" : "Camera",
            "rotation" : [
                0.483536034822464,
                0.33687159419059753,
                -0.20870360732078552,
                0.7804827094078064
            ],
            "translation" : [
                7.358891487121582,
                4.958309173583984,
                6.925790786743164
            ]
        },
        {
            "mesh" : 0,
            "name" : "Tronc-rope",
            "rotation" : [
                0.7071068286895752,
                0,
                0,
                0.7071067094802856
            ]
        }
    ],
    "materials" : [
        {
            "doubleSided" : true,
            "emissiveFactor" : [
                0,
                0,
                0
            ],
            "name" : "wood",
            "pbrMetallicRoughness" : {
                "baseColorTexture" : {
                    "index" : 0,
                    "texCoord" : 0
                },
                "metallicFactor" : 0,
                "roughnessFactor" : 0.5
            }
        },
        {
            "doubleSided" : true,
            "emissiveFactor" : [
                0,
                0,
                0
            ],
            "name" : "rope",
            "pbrMetallicRoughness" : {
                "baseColorTexture" : {
                    "index" : 1,
                    "texCoord" : 0
                },
                "metallicFactor" : 0,
                "roughnessFactor" : 0.5
            }
        }
    ],
    "meshes" : [
        {
            "name" : "Cylindre.002_Cylindre.003",
            "primitives" : [
                {
                    "attributes" : {
                        "POSITION" : 0,
                        "NORMAL" : 1,
                        "TEXCOORD_0" : 2
                    },
                    "indices" : 3,
                    "material" : 0
                },
                {
                    "attributes" : {
                        "POSITION" : 4,
                        "NORMAL" : 5,
                        "TEXCOORD_0" : 6
                    },
                    "indices" : 7,
                    "material" : 1
                }
            ]
        }
    ],
    "textures" : [
        {
            "source" : 0
        },
        {
            "source" : 1
        }
    ],
    "images" : [
        {
            "bufferView" : 4,
            "mimeType" : "image/jpeg",
            "name" : "Wood-tronc-diffuse"
        },
        {
            "bufferView" : 9,
            "mimeType" : "image/jpeg",
            "name" : "Rope-diffuse"
        }
    ],
    "accessors" : [
        {
            "bufferView" : 0,
            "componentType" : 5126,
            "count" : 1122,
            "max" : [
                3.5144519805908203,
                2.8668899536132812,
                1.0000020265579224
            ],
            "min" : [
                -3.3224430084228516,
                -1,
                -2.5248870849609375
            ],
            "type" : "VEC3"
        },
        {
            "bufferView" : 1,
            "componentType" : 5126,
            "count" : 1122,
            "type" : "VEC3"
        },
        {
            "bufferView" : 2,
            "componentType" : 5126,
            "count" : 1122,
            "type" : "VEC2"
        },
        {
            "bufferView" : 3,
            "componentType" : 5123,
            "count" : 1692,
            "type" : "SCALAR"
        },
        {
            "bufferView" : 5,
            "componentType" : 5126,
            "count" : 428,
            "max" : [
                1.7916669845581055,
                3.1824491024017334,
                0.9766520261764526
            ],
            "min" : [
                -2.003593921661377,
                -1.3860349655151367,
                -2.652190923690796
            ],
            "type" : "VEC3"
        },
        {
            "bufferView" : 6,
            "componentType" : 5126,
            "count" : 428,
            "type" : "VEC3"
        },
        {
            "bufferView" : 7,
            "componentType" : 5126,
            "count" : 428,
            "type" : "VEC2"
        },
        {
            "bufferView" : 8,
            "componentType" : 5123,
            "count" : 504,
            "type" : "SCALAR"
        }
    ],
    "bufferViews" : [
        {
            "buffer" : 0,
            "byteLength" : 13464,
            "byteOffset" : 0
        },
        {
            "buffer" : 0,
            "byteLength" : 13464,
            "byteOffset" : 13464
        },
        {
            "buffer" : 0,
            "byteLength" : 8976,
            "byteOffset" : 26928
        },
        {
            "buffer" : 0,
            "byteLength" : 3384,
            "byteOffset" : 35904
        },
        {
            "buffer" : 0,
            "byteLength" : 286093,
            "byteOffset" : 39288
        },
        {
            "buffer" : 0,
            "byteLength" : 5136,
            "byteOffset" : 325384
        },
        {
            "buffer" : 0,
            "byteLength" : 5136,
            "byteOffset" : 330520
        },
        {
            "buffer" : 0,
            "byteLength" : 3424,
            "byteOffset" : 335656
        },
        {
            "buffer" : 0,
            "byteLength" : 1008,
            "byteOffset" : 339080
        },
        {
            "buffer" : 0,
            "byteLength" : 30024,
            "byteOffset" : 340088
        }
    ],
    "buffers" : [
        {
            "byteLength" : 370112,
            "uri" : "data:application/octet-stream;base64,"
        }
    ]
}
