{
    "asset" : {
        "generator" : "Khronos glTF Blender I/O v1.1.46",
        "version" : "2.0"
    },
    "scene" : 0,
    "scenes" : [
        {
            "name" : "Scene",
            "nodes" : [
                0,
                1,
                2
            ]
        }
    ],
    "nodes" : [
        {
            "name" : "Light",
            "rotation" : [
                0.16907575726509094,
                0.7558803558349609,
                -0.27217137813568115,
                0.570947527885437
            ],
            "scale" : [
                5.567470550537109,
                5.567470073699951,
                5.567471504211426
            ],
            "translation" : [
                3.9216177463531494,
                4.56929874420166,
                0.7358031272888184
            ]
        },
        {
            "name" : "Camera",
            "rotation" : [
                0.483536034822464,
                0.33687159419059753,
                -0.20870360732078552,
                0.7804827094078064
            ],
            "scale" : [
                0.415469765663147,
                0.415469765663147,
                0.415469765663147
            ],
            "translation" : [
                5.285457611083984,
                4.176449775695801,
                4.0309953689575195
            ]
        },
        {
            "mesh" : 0,
            "name" : "maze1",
            "rotation" : [
                0.7071068286895752,
                0,
                0,
                0.7071067094802856
            ],
            "scale" : [
                0.2003408670425415,
                0.2003408670425415,
                0.19649362564086914
            ],
            "translation" : [
                2.2280611991882324,
                2.116422653198242,
                1.153538703918457
            ]
        }
    ],
    "materials" : [
        {
            "doubleSided" : true,
            "name" : "07___Default",
            "pbrMetallicRoughness" : {}
        },
        {
            "doubleSided" : true,
            "emissiveFactor" : [
                0,
                0,
                0
            ],
            "name" : "Material__65",
            "pbrMetallicRoughness" : {
                "baseColorFactor" : [
                    0.800000011920929,
                    0.800000011920929,
                    0.800000011920929,
                    1
                ],
                "metallicFactor" : 0,
                "roughnessFactor" : 0.5
            }
        }
    ],
    "meshes" : [
        {
            "name" : "maze1",
            "primitives" : [
                {
                    "attributes" : {
                        "POSITION" : 0,
                        "NORMAL" : 1,
                        "TEXCOORD_0" : 2
                    },
                    "indices" : 3,
                    "material" : 0
                },
                {
                    "attributes" : {
                        "POSITION" : 4,
                        "NORMAL" : 5,
                        "TEXCOORD_0" : 6
                    },
                    "indices" : 7,
                    "material" : 1
                }
            ]
        }
    ],
    "accessors" : [
        {
            "bufferView" : 0,
            "componentType" : 5126,
            "count" : 4,
            "max" : [
                138.2739715576172,
                103.52274322509766,
                5.073770807939582e-07
            ],
            "min" : [
                -120.17649841308594,
                -90.06564331054688,
                5.073691227153176e-07
            ],
            "type" : "VEC3"
        },
        {
            "bufferView" : 1,
            "componentType" : 5126,
            "count" : 4,
            "type" : "VEC3"
        },
        {
            "bufferView" : 2,
            "componentType" : 5126,
            "count" : 4,
            "type" : "VEC2"
        },
        {
            "bufferView" : 3,
            "componentType" : 5123,
            "count" : 6,
            "type" : "SCALAR"
        },
        {
            "bufferView" : 4,
            "componentType" : 5126,
            "count" : 1812,
            "max" : [
                132.98089599609375,
                97.6697998046875,
                -0.2199999988079071
            ],
            "min" : [
                -114.22059631347656,
                -83.90239715576172,
                -13.512999534606934
            ],
            "type" : "VEC3"
        },
        {
            "bufferView" : 5,
            "componentType" : 5126,
            "count" : 1812,
            "type" : "VEC3"
        },
        {
            "bufferView" : 6,
            "componentType" : 5126,
            "count" : 1812,
            "type" : "VEC2"
        },
        {
            "bufferView" : 7,
            "componentType" : 5123,
            "count" : 3156,
            "type" : "SCALAR"
        }
    ],
    "bufferViews" : [
        {
            "buffer" : 0,
            "byteLength" : 48,
            "byteOffset" : 0
        },
        {
            "buffer" : 0,
            "byteLength" : 48,
            "byteOffset" : 48
        },
        {
            "buffer" : 0,
            "byteLength" : 32,
            "byteOffset" : 96
        },
        {
            "buffer" : 0,
            "byteLength" : 12,
            "byteOffset" : 128
        },
        {
            "buffer" : 0,
            "byteLength" : 21744,
            "byteOffset" : 140
        },
        {
            "buffer" : 0,
            "byteLength" : 21744,
            "byteOffset" : 21884
        },
        {
            "buffer" : 0,
            "byteLength" : 14496,
            "byteOffset" : 43628
        },
        {
            "buffer" : 0,
            "byteLength" : 6312,
            "byteOffset" : 58124
        }
    ],
    "buffers" : [
        {
            "byteLength" : 64436,
            "uri" : "data:application/octet-stream;base64,"
        }
    ]
}
