{
    "asset" : {
        "generator" : "Khronos glTF Blender I/O v1.1.46",
        "version" : "2.0"
    },
    "scene" : 0,
    "scenes" : [
        {
            "name" : "Scene",
            "nodes" : [
                0,
                1,
                2,
                3,
                4,
                5
            ]
        }
    ],
    "nodes" : [
        {
            "mesh" : 0,
            "name" : "Cylinder.019",
            "rotation" : [
                0,
                0,
                -0.7071067690849304,
                0.7071068286895752
            ],
            "scale" : [
                0.005925153847783804,
                0.00020710441458504647,
                0.005925153847783804
            ],
            "translation" : [
                -0.0031682222615927458,
                0.4593932628631592,
                -3.5585529804229736
            ]
        },
        {
            "mesh" : 1,
            "name" : "Cylinder.018",
            "rotation" : [
                0,
                0,
                -0.7071067690849304,
                0.7071068286895752
            ],
            "scale" : [
                0.005925153847783804,
                0.00020710441458504647,
                0.005925153847783804
            ],
            "translation" : [
                -0.0031682222615927458,
                0.4593932628631592,
                -3.588820457458496
            ]
        },
        {
            "mesh" : 2,
            "name" : "Cylinder.015",
            "scale" : [
                -0.013348087668418884,
                -0.2869362533092499,
                -0.013348087668418884
            ],
            "translation" : [
                -0.004211610183119774,
                0.1896117925643921,
                -3.5740087032318115
            ]
        },
        {
            "mesh" : 3,
            "name" : "Cube.015",
            "scale" : [
                -0.058572761714458466,
                -0.058572761714458466,
                -0.058572761714458466
            ],
            "translation" : [
                -0.0008623258327133954,
                -0.04783584550023079,
                -3.5740466117858887
            ]
        },
        {
            "mesh" : 4,
            "name" : "Cube.013",
            "scale" : [
                0.06058163195848465,
                0.06058163195848465,
                0.06058163195848465
            ],
            "translation" : [
                0.00013566017150878906,
                -0.04879257082939148,
                -3.3642919063568115
            ]
        },
        {
            "mesh" : 5,
            "name" : "Cylinder.014",
            "scale" : [
                0.146331787109375,
                0.146331787109375,
                0.146331787109375
            ],
            "translation" : [
                -0.0011045336723327637,
                0.1441333293914795,
                -2.6901755332946777
            ]
        }
    ],
    "materials" : [
        {
            "doubleSided" : true,
            "emissiveFactor" : [
                0,
                0,
                0
            ],
            "name" : "Material.011",
            "pbrMetallicRoughness" : {
                "baseColorFactor" : [
                    0.800000011920929,
                    0.800000011920929,
                    0.800000011920929,
                    1
                ],
                "metallicFactor" : 0,
                "roughnessFactor" : 0.5
            }
        },
        {
            "doubleSided" : true,
            "emissiveFactor" : [
                0,
                0,
                0
            ],
            "name" : "Material.012",
            "pbrMetallicRoughness" : {
                "baseColorFactor" : [
                    0.800000011920929,
                    0.800000011920929,
                    0.800000011920929,
                    1
                ],
                "metallicFactor" : 0,
                "roughnessFactor" : 0.5
            }
        },
        {
            "doubleSided" : true,
            "emissiveFactor" : [
                0,
                0,
                0
            ],
            "name" : "Column",
            "pbrMetallicRoughness" : {
                "baseColorTexture" : {
                    "index" : 0,
                    "texCoord" : 0
                },
                "metallicFactor" : 0,
                "roughnessFactor" : 0.5
            }
        },
        {
            "doubleSided" : true,
            "emissiveFactor" : [
                0,
                0,
                0
            ],
            "name" : "Column_line",
            "pbrMetallicRoughness" : {
                "baseColorFactor" : [
                    1,
                    0.8797781467437744,
                    0.9017544984817505,
                    1
                ],
                "metallicFactor" : 0.02499997615814209,
                "roughnessFactor" : 0.1666666716337204
            }
        },
        {
            "doubleSided" : true,
            "emissiveFactor" : [
                0,
                0,
                0
            ],
            "name" : "Concrete",
            "normalTexture" : {
                "index" : 1,
                "scale" : 0.49999991059303284,
                "texCoord" : 0
            },
            "pbrMetallicRoughness" : {
                "baseColorTexture" : {
                    "index" : 2,
                    "texCoord" : 0
                },
                "metallicFactor" : 0,
                "roughnessFactor" : 0.5
            }
        },
        {
            "doubleSided" : true,
            "emissiveFactor" : [
                0,
                0,
                0
            ],
            "name" : "Concrete_line",
            "pbrMetallicRoughness" : {
                "baseColorFactor" : [
                    0.800000011920929,
                    0.800000011920929,
                    0.800000011920929,
                    1
                ],
                "metallicFactor" : 0,
                "roughnessFactor" : 0.5
            }
        },
        {
            "doubleSided" : true,
            "emissiveFactor" : [
                0,
                0,
                0
            ],
            "name" : "Trush",
            "pbrMetallicRoughness" : {
                "baseColorTexture" : {
                    "index" : 3,
                    "texCoord" : 0
                },
                "metallicFactor" : 0.03999999910593033,
                "roughnessFactor" : 0.20000000298023224
            }
        },
        {
            "doubleSided" : true,
            "emissiveFactor" : [
                0,
                0,
                0
            ],
            "name" : "Trush_line_1",
            "pbrMetallicRoughness" : {
                "baseColorFactor" : [
                    0.800000011920929,
                    0.800000011920929,
                    0.800000011920929,
                    1
                ],
                "metallicFactor" : 0.05000000074505806,
                "roughnessFactor" : 0.1666666716337204
            }
        },
        {
            "doubleSided" : true,
            "emissiveFactor" : [
                0,
                0,
                0
            ],
            "name" : "Trush_line_2",
            "pbrMetallicRoughness" : {
                "baseColorFactor" : [
                    0.800000011920929,
                    0.800000011920929,
                    0.800000011920929,
                    1
                ],
                "metallicFactor" : 0.05000000074505806,
                "roughnessFactor" : 0.1666666716337204
            }
        }
    ],
    "meshes" : [
        {
            "name" : "Cylinder.012",
            "primitives" : [
                {
                    "attributes" : {
                        "POSITION" : 0,
                        "NORMAL" : 1
                    },
                    "indices" : 2,
                    "material" : 0
                }
            ]
        },
        {
            "name" : "Cylinder.006",
            "primitives" : [
                {
                    "attributes" : {
                        "POSITION" : 3,
                        "NORMAL" : 4
                    },
                    "indices" : 2,
                    "material" : 1
                }
            ]
        },
        {
            "name" : "Cylinder.005",
            "primitives" : [
                {
                    "attributes" : {
                        "POSITION" : 5,
                        "NORMAL" : 6
                    },
                    "indices" : 7,
                    "material" : 2
                },
                {
                    "attributes" : {
                        "POSITION" : 8,
                        "NORMAL" : 9
                    },
                    "indices" : 10,
                    "material" : 3
                }
            ]
        },
        {
            "name" : "Cube.017",
            "primitives" : [
                {
                    "attributes" : {
                        "POSITION" : 11,
                        "NORMAL" : 12,
                        "TEXCOORD_0" : 13
                    },
                    "indices" : 14,
                    "material" : 2
                }
            ]
        },
        {
            "name" : "Cube.013",
            "primitives" : [
                {
                    "attributes" : {
                        "POSITION" : 15,
                        "NORMAL" : 16,
                        "TEXCOORD_0" : 17
                    },
                    "indices" : 18,
                    "material" : 4
                },
                {
                    "attributes" : {
                        "POSITION" : 19,
                        "NORMAL" : 20,
                        "TEXCOORD_0" : 21
                    },
                    "indices" : 22,
                    "material" : 5
                }
            ]
        },
        {
            "name" : "Cylinder.024",
            "primitives" : [
                {
                    "attributes" : {
                        "POSITION" : 23,
                        "NORMAL" : 24,
                        "TEXCOORD_0" : 25
                    },
                    "indices" : 26,
                    "material" : 6
                },
                {
                    "attributes" : {
                        "POSITION" : 27,
                        "NORMAL" : 28,
                        "TEXCOORD_0" : 29
                    },
                    "indices" : 30,
                    "material" : 7
                },
                {
                    "attributes" : {
                        "POSITION" : 31,
                        "NORMAL" : 32,
                        "TEXCOORD_0" : 33
                    },
                    "indices" : 30,
                    "material" : 8
                }
            ]
        }
    ],
    "textures" : [
        {
            "source" : 0
        },
        {
            "source" : 1
        },
        {
            "source" : 2
        },
        {
            "source" : 0
        }
    ],
    "images" : [
        {
            "bufferView" : 8,
            "mimeType" : "image/jpeg",
            "name" : "Color"
        },
        {
            "bufferView" : 20,
            "mimeType" : "image/jpeg",
            "name" : "Metall_NormalMap"
        },
        {
            "bufferView" : 21,
            "mimeType" : "image/jpeg",
            "name" : "Sing_texture"
        }
    ],
    "accessors" : [
        {
            "bufferView" : 0,
            "componentType" : 5126,
            "count" : 384,
            "max" : [
                1,
                1,
                1
            ],
            "min" : [
                -1,
                -1,
                -1
            ],
            "type" : "VEC3"
        },
        {
            "bufferView" : 1,
            "componentType" : 5126,
            "count" : 384,
            "type" : "VEC3"
        },
        {
            "bufferView" : 2,
            "componentType" : 5123,
            "count" : 768,
            "type" : "SCALAR"
        },
        {
            "bufferView" : 3,
            "componentType" : 5126,
            "count" : 384,
            "max" : [
                1,
                1,
                1
            ],
            "min" : [
                -1,
                -1,
                -1
            ],
            "type" : "VEC3"
        },
        {
            "bufferView" : 4,
            "componentType" : 5126,
            "count" : 384,
            "type" : "VEC3"
        },
        {
            "bufferView" : 5,
            "componentType" : 5126,
            "count" : 832,
            "max" : [
                1.1168956756591797,
                1,
                1.1168956756591797
            ],
            "min" : [
                -1.1168957948684692,
                -1,
                -1.1168956756591797
            ],
            "type" : "VEC3"
        },
        {
            "bufferView" : 6,
            "componentType" : 5126,
            "count" : 832,
            "type" : "VEC3"
        },
        {
            "bufferView" : 7,
            "componentType" : 5123,
            "count" : 1716,
            "type" : "SCALAR"
        },
        {
            "bufferView" : 9,
            "componentType" : 5126,
            "count" : 128,
            "max" : [
                1,
                -0.5015420913696289,
                1
            ],
            "min" : [
                -1,
                -0.8783094882965088,
                -1
            ],
            "type" : "VEC3"
        },
        {
            "bufferView" : 10,
            "componentType" : 5126,
            "count" : 128,
            "type" : "VEC3"
        },
        {
            "bufferView" : 11,
            "componentType" : 5123,
            "count" : 192,
            "type" : "SCALAR"
        },
        {
            "bufferView" : 12,
            "componentType" : 5126,
            "count" : 24,
            "max" : [
                1,
                1,
                1
            ],
            "min" : [
                -1,
                0.8797308206558228,
                -1
            ],
            "type" : "VEC3"
        },
        {
            "bufferView" : 13,
            "componentType" : 5126,
            "count" : 24,
            "type" : "VEC3"
        },
        {
            "bufferView" : 14,
            "componentType" : 5126,
            "count" : 24,
            "type" : "VEC2"
        },
        {
            "bufferView" : 15,
            "componentType" : 5123,
            "count" : 36,
            "type" : "SCALAR"
        },
        {
            "bufferView" : 16,
            "componentType" : 5126,
            "count" : 168,
            "max" : [
                1,
                7.638327598571777,
                1
            ],
            "min" : [
                -1,
                -1,
                -1
            ],
            "type" : "VEC3"
        },
        {
            "bufferView" : 17,
            "componentType" : 5126,
            "count" : 168,
            "type" : "VEC3"
        },
        {
            "bufferView" : 18,
            "componentType" : 5126,
            "count" : 168,
            "type" : "VEC2"
        },
        {
            "bufferView" : 19,
            "componentType" : 5123,
            "count" : 252,
            "type" : "SCALAR"
        },
        {
            "bufferView" : 22,
            "componentType" : 5126,
            "count" : 32,
            "max" : [
                0.36464089155197144,
                5.690025329589844,
                0.14143645763397217
            ],
            "min" : [
                -0.31767958402633667,
                -0.8571480512619019,
                -0.31491711735725403
            ],
            "type" : "VEC3"
        },
        {
            "bufferView" : 23,
            "componentType" : 5126,
            "count" : 32,
            "type" : "VEC3"
        },
        {
            "bufferView" : 24,
            "componentType" : 5126,
            "count" : 32,
            "type" : "VEC2"
        },
        {
            "bufferView" : 25,
            "componentType" : 5123,
            "count" : 48,
            "type" : "SCALAR"
        },
        {
            "bufferView" : 26,
            "componentType" : 5126,
            "count" : 2588,
            "max" : [
                0.9945219159126282,
                3.076232433319092,
                1
            ],
            "min" : [
                -0.994521975517273,
                -1.6127572059631348,
                -1
            ],
            "type" : "VEC3"
        },
        {
            "bufferView" : 27,
            "componentType" : 5126,
            "count" : 2588,
            "type" : "VEC3"
        },
        {
            "bufferView" : 28,
            "componentType" : 5126,
            "count" : 2588,
            "type" : "VEC2"
        },
        {
            "bufferView" : 29,
            "componentType" : 5123,
            "count" : 3960,
            "type" : "SCALAR"
        },
        {
            "bufferView" : 30,
            "componentType" : 5126,
            "count" : 240,
            "max" : [
                0.8791372776031494,
                1.692001461982727,
                0.8839797377586365
            ],
            "min" : [
                -0.8791371583938599,
                1.3209651708602905,
                -0.8839797973632812
            ],
            "type" : "VEC3"
        },
        {
            "bufferView" : 31,
            "componentType" : 5126,
            "count" : 240,
            "type" : "VEC3"
        },
        {
            "bufferView" : 32,
            "componentType" : 5126,
            "count" : 240,
            "type" : "VEC2"
        },
        {
            "bufferView" : 33,
            "componentType" : 5123,
            "count" : 360,
            "type" : "SCALAR"
        },
        {
            "bufferView" : 34,
            "componentType" : 5126,
            "count" : 240,
            "max" : [
                0.8791372776031494,
                1.2780157327651978,
                0.8839797377586365
            ],
            "min" : [
                -0.8791371583938599,
                1.2268799543380737,
                -0.8839797973632812
            ],
            "type" : "VEC3"
        },
        {
            "bufferView" : 35,
            "componentType" : 5126,
            "count" : 240,
            "type" : "VEC3"
        },
        {
            "bufferView" : 36,
            "componentType" : 5126,
            "count" : 240,
            "type" : "VEC2"
        }
    ],
    "bufferViews" : [
        {
            "buffer" : 0,
            "byteLength" : 4608,
            "byteOffset" : 0
        },
        {
            "buffer" : 0,
            "byteLength" : 4608,
            "byteOffset" : 4608
        },
        {
            "buffer" : 0,
            "byteLength" : 1536,
            "byteOffset" : 9216
        },
        {
            "buffer" : 0,
            "byteLength" : 4608,
            "byteOffset" : 10752
        },
        {
            "buffer" : 0,
            "byteLength" : 4608,
            "byteOffset" : 15360
        },
        {
            "buffer" : 0,
            "byteLength" : 9984,
            "byteOffset" : 19968
        },
        {
            "buffer" : 0,
            "byteLength" : 9984,
            "byteOffset" : 29952
        },
        {
            "buffer" : 0,
            "byteLength" : 3432,
            "byteOffset" : 39936
        },
        {
            "buffer" : 0,
            "byteLength" : 12841,
            "byteOffset" : 43368
        },
        {
            "buffer" : 0,
            "byteLength" : 1536,
            "byteOffset" : 56212
        },
        {
            "buffer" : 0,
            "byteLength" : 1536,
            "byteOffset" : 57748
        },
        {
            "buffer" : 0,
            "byteLength" : 384,
            "byteOffset" : 59284
        },
        {
            "buffer" : 0,
            "byteLength" : 288,
            "byteOffset" : 59668
        },
        {
            "buffer" : 0,
            "byteLength" : 288,
            "byteOffset" : 59956
        },
        {
            "buffer" : 0,
            "byteLength" : 192,
            "byteOffset" : 60244
        },
        {
            "buffer" : 0,
            "byteLength" : 72,
            "byteOffset" : 60436
        },
        {
            "buffer" : 0,
            "byteLength" : 2016,
            "byteOffset" : 60508
        },
        {
            "buffer" : 0,
            "byteLength" : 2016,
            "byteOffset" : 62524
        },
        {
            "buffer" : 0,
            "byteLength" : 1344,
            "byteOffset" : 64540
        },
        {
            "buffer" : 0,
            "byteLength" : 504,
            "byteOffset" : 65884
        },
        {
            "buffer" : 0,
            "byteLength" : 2666390,
            "byteOffset" : 66388
        },
        {
            "buffer" : 0,
            "byteLength" : 17859,
            "byteOffset" : 2732780
        },
        {
            "buffer" : 0,
            "byteLength" : 384,
            "byteOffset" : 2750640
        },
        {
            "buffer" : 0,
            "byteLength" : 384,
            "byteOffset" : 2751024
        },
        {
            "buffer" : 0,
            "byteLength" : 256,
            "byteOffset" : 2751408
        },
        {
            "buffer" : 0,
            "byteLength" : 96,
            "byteOffset" : 2751664
        },
        {
            "buffer" : 0,
            "byteLength" : 31056,
            "byteOffset" : 2751760
        },
        {
            "buffer" : 0,
            "byteLength" : 31056,
            "byteOffset" : 2782816
        },
        {
            "buffer" : 0,
            "byteLength" : 20704,
            "byteOffset" : 2813872
        },
        {
            "buffer" : 0,
            "byteLength" : 7920,
            "byteOffset" : 2834576
        },
        {
            "buffer" : 0,
            "byteLength" : 2880,
            "byteOffset" : 2842496
        },
        {
            "buffer" : 0,
            "byteLength" : 2880,
            "byteOffset" : 2845376
        },
        {
            "buffer" : 0,
            "byteLength" : 1920,
            "byteOffset" : 2848256
        },
        {
            "buffer" : 0,
            "byteLength" : 720,
            "byteOffset" : 2850176
        },
        {
            "buffer" : 0,
            "byteLength" : 2880,
            "byteOffset" : 2850896
        },
        {
            "buffer" : 0,
            "byteLength" : 2880,
            "byteOffset" : 2853776
        },
        {
            "buffer" : 0,
            "byteLength" : 1920,
            "byteOffset" : 2856656
        }
    ],
    "buffers" : [
        {
            "byteLength" : 2858576,
            "uri" : "data:application/octet-stream;base64,"
        }
    ]
}
