# Blender v2.82 (sub 7) OBJ File: ''
# www.blender.org
mtllib stop-sign-ts.mtl
o stop-sign-low
v 0.037800 2.049956 -0.100089
v 0.021000 0.000000 -0.100089
v 0.037800 0.000000 -0.100089
v 0.021000 2.049956 -0.150089
v -0.021000 0.000000 -0.150089
v 0.021000 0.000000 -0.150089
v -0.021000 2.049956 -0.100089
v -0.037800 0.000000 -0.100089
v -0.021000 0.000000 -0.100089
v 0.021000 2.049956 -0.100089
v -0.021000 2.049956 -0.150089
v 0.022814 0.000000 -0.102279
v 0.037800 2.049956 -0.102279
v 0.037800 0.000000 -0.102279
v -0.022814 0.000000 -0.151903
v 0.022814 2.049956 -0.151903
v 0.022814 0.000000 -0.151903
v -0.037800 0.000000 -0.102279
v -0.022814 2.049956 -0.102279
v -0.022814 0.000000 -0.102279
v 0.022814 2.049956 -0.102279
v -0.022814 2.049956 -0.151903
v -0.037800 2.049956 -0.102279
v -0.037800 2.049956 -0.100089
v 0.000000 1.687076 -0.100166
v -0.135998 2.015811 -0.100166
v 0.136286 2.015692 -0.100166
v 0.000000 1.687076 -0.093051
v 0.136286 2.015692 -0.093051
v -0.135998 2.015811 -0.093051
v 0.328735 1.823074 -0.100166
v 0.328735 1.823074 -0.093051
v 0.328616 1.550790 -0.100166
v 0.328616 1.550790 -0.093051
v 0.135998 1.358341 -0.100166
v 0.135998 1.358341 -0.093051
v -0.136286 1.358459 -0.100166
v -0.136286 1.358459 -0.093051
v -0.328735 1.551077 -0.100166
v -0.328735 1.551077 -0.093051
v -0.328616 1.823361 -0.100166
v -0.328616 1.823361 -0.093051
v 0.000000 1.392596 -0.156806
v 0.005138 1.387576 -0.086494
v 0.005138 1.387576 -0.156806
v 0.000000 1.382557 -0.156806
v 0.000000 1.392596 -0.086494
v 0.000000 1.382557 -0.086494
v -0.005138 1.387576 -0.086494
v -0.005138 1.387576 -0.156806
v 0.000000 1.990987 -0.156806
v 0.005138 1.985968 -0.086494
v 0.005138 1.985968 -0.156806
v 0.000000 1.980948 -0.156806
v 0.000000 1.990987 -0.086494
v 0.000000 1.980948 -0.086494
v -0.005138 1.985968 -0.086494
v -0.005138 1.985968 -0.156806
vt 0.334300 0.494500
vt 0.325700 0.000900
vt 0.334300 0.000900
vt 0.233700 0.603800
vt 0.954000 0.589100
vt 0.954000 0.603800
vt 0.315300 0.000900
vt 0.323900 0.494500
vt 0.315300 0.494600
vt 0.233700 0.621400
vt 0.954000 0.621400
vt 0.233700 0.589100
vt 0.954000 0.571500
vt 0.293700 0.569500
vt 0.303600 0.001300
vt 0.303600 0.569600
vt 0.267300 0.569500
vt 0.279900 0.001200
vt 0.279900 0.569500
vt 0.243600 0.569400
vt 0.253500 0.001200
vt 0.253500 0.569500
vt 0.293700 0.001200
vt 0.267300 0.001200
vt 0.336700 0.119200
vt 0.336100 0.134600
vt 0.336100 0.119800
vt 0.336800 0.168400
vt 0.336100 0.163100
vt 0.336800 0.162500
vt 0.243600 0.001000
vt 0.233700 0.569200
vt 0.233700 0.000900
vt 0.336100 0.079800
vt 0.336700 0.096600
vt 0.336100 0.097400
vt 0.336700 0.116800
vt 0.336100 0.100000
vt 0.336700 0.099200
vt 0.336800 0.155400
vt 0.336100 0.160700
vt 0.336100 0.154800
vt 0.336700 0.137000
vt 0.336100 0.152400
vt 0.336100 0.137600
vt 0.336100 0.183100
vt 0.336800 0.177800
vt 0.336800 0.183700
vt 0.313500 0.001400
vt 0.313500 0.569700
vt 0.336100 0.056700
vt 0.336700 0.039900
vt 0.336700 0.057500
vt 0.336700 0.060000
vt 0.336100 0.076800
vt 0.336100 0.059200
vt 0.336800 0.176100
vt 0.336100 0.170800
vt 0.336800 0.170100
vt 0.116400 0.116400
vt 0.068500 0.000900
vt 0.164200 0.000900
vt 0.116400 0.349200
vt 0.068500 0.464700
vt 0.000900 0.397000
vt 0.329300 0.625700
vt 0.233700 0.623200
vt 0.329300 0.623200
vt 0.231900 0.068500
vt 0.164200 0.464700
vt 0.999100 0.625700
vt 0.903500 0.623200
vt 0.999100 0.623200
vt 0.231900 0.164200
vt 0.231900 0.397000
vt 0.903500 0.625700
vt 0.807800 0.623200
vt 0.164200 0.231900
vt 0.231900 0.301300
vt 0.807800 0.625700
vt 0.712100 0.623200
vt 0.068500 0.231900
vt 0.164200 0.233700
vt 0.712100 0.625700
vt 0.616400 0.623200
vt 0.000900 0.164200
vt 0.068500 0.233700
vt 0.616400 0.625700
vt 0.520700 0.623200
vt 0.000900 0.068500
vt 0.000900 0.301300
vt 0.520700 0.625700
vt 0.425000 0.623200
vt 0.425000 0.625700
vt 0.325700 0.494600
vt 0.323900 0.000900
vt 0.233700 0.571500
vt 0.336700 0.135200
vt 0.336100 0.168400
vt 0.336700 0.079200
vt 0.336100 0.117400
vt 0.336800 0.160700
vt 0.336700 0.153000
vt 0.336100 0.177800
vt 0.336100 0.039200
vt 0.336700 0.077400
vt 0.336100 0.176100
vt 0.233700 0.625700
vt 0.336100 0.000900
vt 0.360800 0.003400
vt 0.336100 0.003400
vt 0.336100 0.005900
vt 0.338600 0.192400
vt 0.336100 0.189900
vt 0.338600 0.189900
vt 0.360800 0.008500
vt 0.336100 0.011000
vt 0.336100 0.008500
vt 0.338600 0.185600
vt 0.336100 0.188000
vt 0.336100 0.185500
vt 0.336100 0.037500
vt 0.338600 0.012800
vt 0.338600 0.037500
vt 0.341100 0.037500
vt 0.338600 0.194300
vt 0.336100 0.196700
vt 0.336100 0.194200
vt 0.343600 0.012800
vt 0.346100 0.037500
vt 0.343600 0.037500
vt 0.336100 0.201100
vt 0.338600 0.198600
vt 0.338600 0.201200
vt 0.360800 0.000900
vt 0.360800 0.005900
vt 0.336100 0.192400
vt 0.360800 0.011000
vt 0.338600 0.188100
vt 0.336100 0.012800
vt 0.341100 0.012800
vt 0.338600 0.196800
vt 0.346100 0.012800
vt 0.336100 0.198600
vn 0.5773 0.5774 0.5774
vn -0.5773 -0.5773 0.5774
vn 0.5774 -0.5774 0.5774
vn -0.3015 0.9045 0.3015
vn 0.3015 -0.9045 0.3015
vn -0.3015 -0.9045 0.3015
vn 0.5773 0.5773 0.5774
vn -0.5773 -0.5774 0.5774
vn -0.5774 0.5774 0.5773
vn 0.3015 0.9046 0.3014
vn 0.3015 -0.9045 -0.3015
vn 0.5773 0.5773 -0.5774
vn 0.5773 -0.5774 -0.5774
vn -0.5773 -0.5773 -0.5774
vn 0.5774 -0.5773 -0.5774
vn -0.3015 0.9045 -0.3015
vn -0.3015 -0.9045 -0.3015
vn 0.3015 0.9045 -0.3015
vn -0.5773 0.5773 -0.5774
vn -0.5773 0.5774 -0.5774
vn -0.5774 0.5774 0.5774
vn 0.0000 0.0000 -1.0000
vn -0.2968 0.7174 -0.6303
vn 0.2974 0.7172 -0.6303
vn -0.0000 -0.0000 1.0000
vn 0.2974 0.7172 0.6303
vn -0.2968 0.7174 0.6303
vn 0.7174 0.2968 -0.6303
vn 0.7174 0.2968 0.6303
vn 0.7172 -0.2974 -0.6303
vn 0.7172 -0.2974 0.6303
vn 0.2968 -0.7174 -0.6303
vn 0.2968 -0.7174 0.6303
vn -0.2974 -0.7172 -0.6303
vn -0.2974 -0.7172 0.6303
vn -0.7174 -0.2968 -0.6303
vn -0.7174 -0.2968 0.6303
vn -0.7172 0.2974 -0.6303
vn -0.7172 0.2974 0.6303
vn 0.0000 0.8156 -0.5786
vn 0.8174 -0.0000 0.5761
vn 0.8174 -0.0000 -0.5761
vn 0.0000 -0.8156 -0.5786
vn 0.0000 0.8156 0.5786
vn 0.0000 -0.8156 0.5786
vn -0.8174 -0.0000 0.5761
vn -0.8174 -0.0000 -0.5761
g stop-sign-low_stop-sign-low_Default_OBJ
usemtl Default_OBJ
s 1
f 1/1/1 2/2/2 3/3/3
f 4/4/4 5/5/5 6/6/6
f 7/7/7 8/8/8 9/9/3
f 10/10/9 6/6/6 2/11/2
f 11/12/10 9/13/3 5/5/5
f 12/14/11 13/15/12 14/16/13
f 15/17/14 16/18/12 17/19/15
f 18/20/14 19/21/16 20/22/17
f 17/19/15 21/23/18 12/14/11
f 20/22/17 22/24/19 15/17/14
f 15/25/14 6/26/6 5/27/5
f 1/28/1 21/29/18 10/30/9
f 23/31/20 8/32/8 24/33/21
f 11/34/10 19/35/16 7/36/7
f 6/37/6 12/38/11 2/39/2
f 19/40/16 24/41/21 7/42/7
f 16/43/12 11/44/10 4/45/4
f 12/46/11 3/47/3 2/48/2
f 14/16/13 1/49/1 3/50/3
f 20/51/17 5/52/5 9/53/3
f 21/54/18 4/55/4 10/56/9
f 8/57/8 20/58/17 9/59/3
f 25/60/22 26/61/23 27/62/24
f 28/63/25 29/64/26 30/65/27
f 30/66/27 27/67/24 26/68/23
f 25/60/22 27/62/24 31/69/28
f 28/63/25 32/70/29 29/64/26
f 29/71/26 31/72/28 27/73/24
f 25/60/22 31/69/28 33/74/30
f 28/63/25 34/75/31 32/70/29
f 32/76/29 33/77/30 31/72/28
f 25/60/22 33/74/30 35/78/32
f 28/63/25 36/79/33 34/75/31
f 34/80/31 35/81/32 33/77/30
f 25/60/22 35/78/32 37/82/34
f 28/63/25 38/83/35 36/79/33
f 36/84/33 37/85/34 35/81/32
f 25/60/22 37/82/34 39/86/36
f 28/63/25 40/87/37 38/83/35
f 38/88/35 39/89/36 37/85/34
f 25/60/22 39/86/36 41/90/38
f 28/63/25 42/91/39 40/87/37
f 40/92/37 41/93/38 39/89/36
f 25/60/22 41/90/38 26/61/23
f 28/63/25 30/65/27 42/91/39
f 42/94/39 26/68/23 41/93/38
f 1/1/1 10/95/9 2/2/2
f 4/4/4 11/12/10 5/5/5
f 7/7/7 24/96/21 8/8/8
f 10/10/9 4/4/4 6/6/6
f 11/12/10 7/97/7 9/13/3
f 12/14/11 21/23/18 13/15/12
f 15/17/14 22/24/19 16/18/12
f 18/20/14 23/31/20 19/21/16
f 17/19/15 16/18/12 21/23/18
f 20/22/17 19/21/16 22/24/19
f 15/25/14 17/98/15 6/26/6
f 1/28/1 13/99/12 21/29/18
f 23/31/20 18/20/14 8/32/8
f 11/34/10 22/100/19 19/35/16
f 6/37/6 17/101/15 12/38/11
f 19/40/16 23/102/20 24/41/21
f 16/43/12 22/103/19 11/44/10
f 12/46/11 14/104/13 3/47/3
f 14/16/13 13/15/12 1/49/1
f 20/51/17 15/105/14 5/52/5
f 21/54/18 16/106/12 4/55/4
f 8/57/8 18/107/14 20/58/17
f 30/66/27 29/108/26 27/67/24
f 29/71/26 32/76/29 31/72/28
f 32/76/29 34/80/31 33/77/30
f 34/80/31 36/84/33 35/81/32
f 36/84/33 38/88/35 37/85/34
f 38/88/35 40/92/37 39/89/36
f 40/92/37 42/94/39 41/93/38
f 42/94/39 30/66/27 26/68/23
f 43/109/40 44/110/41 45/111/42
f 44/110/41 46/112/43 45/111/42
f 47/113/44 48/114/45 44/115/41
f 49/116/46 43/117/40 50/118/47
f 46/112/43 49/116/46 50/118/47
f 43/119/40 46/120/43 50/121/47
f 51/122/40 52/123/41 53/124/42
f 52/123/41 54/125/43 53/124/42
f 55/126/44 56/127/45 52/128/41
f 57/129/46 51/130/40 58/131/47
f 54/125/43 57/129/46 58/131/47
f 51/132/40 54/133/43 58/134/47
f 43/109/40 47/135/44 44/110/41
f 44/110/41 48/136/45 46/112/43
f 47/113/44 49/137/46 48/114/45
f 49/116/46 47/138/44 43/117/40
f 46/112/43 48/136/45 49/116/46
f 43/119/40 45/139/42 46/120/43
f 51/122/40 55/140/44 52/123/41
f 52/123/41 56/141/45 54/125/43
f 55/126/44 57/142/46 56/127/45
f 57/129/46 55/143/44 51/130/40
f 54/125/43 56/141/45 57/129/46
f 51/132/40 53/144/42 54/133/43
